<svg xmlns="http://www.w3.org/2000/svg" xmlns:xlink="http://www.w3.org/1999/xlink" version="1.1" x="0px" y="0px" viewBox="0 0 100 125" style="enable-background:new 0 0 100 100;" xml:space="preserve"><g><path d="M84,5H16C9.9,5,5,9.6,5,15.3V67c0,5.7,4.9,10.3,11,10.3h7.2v15.3c0,0.9,0.6,1.8,1.5,2.2c0.4,0.2,0.7,0.2,1.1,0.2   c0.6,0,1.2-0.2,1.7-0.5l22.7-17.2H84c6.1,0,11-4.6,11-10.3V15.3C95,9.6,90.1,5,84,5z M89.9,66.9c0,3-2.6,5.4-5.8,5.4H49.2   c-0.6,0-1.2,0.2-1.7,0.5L28.4,87.3V74.7c0-1.3-1.2-2.4-2.6-2.4h-9.8c-3.2,0-5.8-2.4-5.8-5.4V15.5c0-3,2.6-5.4,5.8-5.4h68.2   c3.2,0,5.8,2.4,5.8,5.4V66.9z"/><polygon points="42.7,46.7 31.1,26.3 24.7,26.3 24.7,55.5 30.4,55.5 30.4,34.8 42.3,55.5 48.4,55.5 48.4,26.3 42.7,26.3  "/><polygon points="64.8,48.5 58.5,26.3 52,26.3 61.8,55.5 67.6,55.5 77.5,26.3 71.2,26.3  "/></g><text x="0" y="115" fill="#000000" font-size="5px" font-weight="bold" font-family="'Helvetica Neue', Helvetica, Arial-Unicode, Arial, Sans-serif">Created by Jonathan Coutiño</text><text x="0" y="120" fill="#000000" font-size="5px" font-weight="bold" font-family="'Helvetica Neue', Helvetica, Arial-Unicode, Arial, Sans-serif">from the Noun Project</text></svg>